<?xml version="1.0"?>
<svg xmlns="http://www.w3.org/2000/svg" height="512px" viewBox="0 -16 512 512" width="512px" class=""><g><path d="m471.554688 375.714844v-15.292969c14.25-5.90625 24.304687-19.960937 24.304687-36.324219 0-21.671875-17.632813-39.308594-39.304687-39.308594-16.324219 0-30.351563 10.003907-36.28125 24.199219h-48.769532c-.425781-10.410156 4.894532-20.375 14.089844-25.734375 15.832031-9.230468 18.933594-30.804687 6.34375-44.121094-8.273438-8.746093-10.140625-21.75-4.667969-32.476562 8.328125-16.324219-.726562-36.148438-18.519531-40.542969-11.6875-2.886719-20.289062-12.816406-21.484375-24.796875-1.816406-18.238281-20.152344-30.019531-37.496094-24.097656-11.394531 3.890625-24 .1875-31.480469-9.242188-11.390624-14.359374-33.1875-14.359374-44.574218 0-7.480469 9.429688-20.089844 13.132813-31.480469 9.242188-17.085937-5.835938-35.125 5.519531-37.394531 23.292969h-73.027344c-3.976562-9.675781-11.703125-17.425781-21.367188-21.429688v-16.976562c20.257813-7.320313 34.777344-26.742188 34.777344-49.492188 0-29.011719-23.601562-52.613281-52.609375-52.613281-29.011719 0-52.613281 23.601562-52.613281 52.609375 0 24.824219 17.285156 45.671875 40.445312 51.175781v15.292969c-14.25 5.90625-24.304687 19.960937-24.304687 36.324219 0 21.671875 17.632813 39.308594 39.304687 39.308594 16.324219 0 30.351563-10.003907 36.28125-24.199219h41.894532c-11.105469 7.863281-15.539063 23.117187-8.890625 36.144531 5.472656 10.722656 3.605469 23.726562-4.667969 32.476562-12.59375 13.3125-9.488281 34.890626 6.34375 44.117188 10.402344 6.0625 15.859375 18.015625 13.628906 29.84375-3.394531 18.011719 10.878906 34.484375 29.191406 33.6875 12.027344-.523438 23.078126 6.582031 27.597657 17.738281 6.882812 16.988281 27.796875 23.128907 42.769531 12.558594 9.835938-6.941406 22.976562-6.941406 32.808594 0 14.976562 10.570313 35.886718 4.429687 42.769531-12.558594 4.519531-11.15625 15.574219-18.261719 27.601563-17.738281 8.136718.355469 15.46875-2.707031 20.816406-7.792969h56.597656c3.976562 9.675781 11.703125 17.425781 21.367188 21.429688v16.976562c-20.257813 7.320313-34.777344 26.742188-34.777344 49.492188 0 29.011719 23.601562 52.613281 52.609375 52.613281 29.011719 0 52.613281-23.601562 52.613281-52.609375 0-24.824219-17.285156-45.671875-40.445312-51.175781zm-441.554688-323.105469c0-12.46875 10.144531-22.613281 22.613281-22.613281 12.464844 0 22.613281 10.144531 22.613281 22.613281s-10.144531 22.613281-22.613281 22.613281-22.613281-10.144531-22.613281-22.613281zm139 187.140625c0-47.972656 39.027344-87 87-87s87 39.027344 87 87-39.027344 87-87 87-87-39.027344-87-87zm290.386719 209.753906c-12.46875 0-22.609375-10.144531-22.609375-22.613281s10.144531-22.613281 22.609375-22.613281c12.46875 0 22.613281 10.144531 22.613281 22.613281s-10.144531 22.613281-22.613281 22.613281zm0 0" data-original="#000000" class="active-path" data-old_color="#000000" fill="#FFFFFF"/><path d="m256 296.75c31.429688 0 57-25.570312 57-57s-25.570312-57-57-57-57 25.570312-57 57 25.570312 57 57 57zm0 0" data-original="#000000" class="active-path" data-old_color="#000000" fill="#FFFFFF"/></g> </svg>
