<?xml version="1.0"?>
<svg xmlns="http://www.w3.org/2000/svg" height="512px" viewBox="0 0 512 512" width="512px" class=""><g><path d="m121.367188 195.027344c-13.257813 0-26.179688 5.890625-34.601563 15.777344-6.941406 8.132812-10.765625 18.503906-10.765625 29.195312 0 24.8125 20.1875 45 45 45 10.691406 0 21.078125-3.824219 29.210938-10.765625 10.03125-8.554687 15.789062-21.035156 15.789062-34.234375 0-23.085938-17.3125-42.335938-40.195312-44.75-1.480469-.148438-2.957032-.222656-4.4375-.222656zm0 0" data-original="#000000" class="active-path" data-old_color="#000000" fill="#FFFFFF"/><path d="m436 255c0-15.320312-11.425781-28.109375-26.617188-29.808594l-2.929687-.164062c-7.777344 0-15.554687 3.238281-21.34375 8.878906-5.886719 5.710938-9.109375 13.210938-9.109375 21.09375 0 16.539062 13.460938 30 30 30s30-13.460938 30-30zm0 0" data-original="#000000" class="active-path" data-old_color="#000000" fill="#FFFFFF"/><path d="m15 30h15c0 16.566406 14.429688 30 31 30h105c0-23.132812 9.015625-44.039062 23.40625-60-4.867188 0-181.410156 0-174.40625 0-8.289062 0-15 6.710938-15 15s6.710938 15 15 15zm0 0" data-original="#000000" class="active-path" data-old_color="#000000" fill="#FFFFFF"/><path d="m497 0c-4.472656 0-179.953125 0-174.40625 0 14.390625 15.960938 23.40625 36.867188 23.40625 60h105c16.570312 0 31-13.433594 31-30h15c8.289062 0 15-6.710938 15-15s-6.710938-15-15-15zm0 0" data-original="#000000" class="active-path" data-old_color="#000000" fill="#FFFFFF"/><path d="m259.476562 149.648438c-1.179687.046874-2.285156.351562-3.476562.351562-39.585938 0-72.898438-25.851562-84.917969-61.433594l-50.550781 75.960938 115.046875 12.144531zm0 0" data-original="#000000" class="active-path" data-old_color="#000000" fill="#FFFFFF"/><path d="m256 0c-33.136719 0-60 26.863281-60 60s26.863281 60 60 60 60-26.863281 60-60-26.863281-60-60-60zm0 75c-8.285156 0-15-6.714844-15-15s6.714844-15 15-15 15 6.714844 15 15-6.714844 15-15 15zm0 0" data-original="#000000" class="active-path" data-old_color="#000000" fill="#FFFFFF"/><path d="m482 452h-31v-46c0-8.289062-6.710938-15-15-15h-15v-35.597656c8.804688-5.226563 15-14.421875 15-25.402344v-23.34375c-8.859375 5.167969-19.023438 8.34375-30 8.34375s-21.140625-3.175781-30-8.34375v23.34375c0 10.984375 6.195312 20.175781 15 25.402344v35.597656h-15c-8.289062 0-15 6.710938-15 15v46h-60v-46c0-8.289062-6.710938-15-15-15h-60c-8.289062 0-15 6.710938-15 15v46h-60v-46c0-8.289062-6.710938-15-15-15h-60c-8.289062 0-15 6.710938-15 15v46h-31c-16.570312 0-30 13.429688-30 30 0 16.566406 13.429688 30 30 30h452c16.570312 0 30-13.433594 30-30 0-16.570312-13.429688-30-30-30zm0 0" data-original="#000000" class="active-path" data-old_color="#000000" fill="#FFFFFF"/><path d="m185.34375 201.542969c6.742188 11.28125 10.65625 24.417969 10.65625 38.457031 0 16.414062-5.359375 32.140625-15.019531 45h173.363281c-5.167969-8.859375-8.34375-19.023438-8.34375-30 0-12.859375 4.296875-25.015625 11.960938-35.238281zm0 0" data-original="#000000" class="active-path" data-old_color="#000000" fill="#FFFFFF"/></g> </svg>
