<?xml version="1.0"?>
<svg xmlns="http://www.w3.org/2000/svg" xmlns:xlink="http://www.w3.org/1999/xlink" version="1.1" id="Capa_1" x="0px" y="0px" width="512px" height="512px" viewBox="0 0 395.449 395.449" style="enable-background:new 0 0 395.449 395.449;" xml:space="preserve" class=""><g><g>
	<g>
		<path d="M357.744,60.411c-0.01-0.01-0.021-0.021-0.033-0.032c-24.096-24.096-59.338-39.665-89.789-39.666    c-32.213,0-62.475,12.52-85.213,35.255L28.16,210.517C10.004,228.673,0.004,252.832,0,278.551    c0.002,25.71,9.996,49.863,28.146,68.015c0.004,0.005,0.01,0.01,0.014,0.015c18.154,18.149,42.313,28.149,68.029,28.156    c0.018,0,0.037-0.002,0.055,0c25.701-0.012,49.846-10.012,67.988-28.158l137.25-137.243c4.803-4.756,20.479-22.251,20.545-47.657    c0.03-11.833-3.388-29.394-19.849-45.855c-18.477-18.477-37.973-21.26-51.075-20.341c-15.914,1.116-31.23,8.282-43.128,20.18    L96.251,227.384c-7.811,7.812-7.811,20.474,0,28.284c7.811,7.81,20.473,7.811,28.285,0l111.726-111.727    c5.006-5.005,11.437-8.125,17.642-8.562c6.987-0.49,13.715,2.445,19.991,8.724c5.412,5.412,8.15,11.288,8.134,17.467    c-0.025,10.242-7.244,17.907-8.759,19.408L135.945,318.295c-10.588,10.591-24.682,16.429-39.695,16.439    c-0.035-0.002-0.07,0-0.105-0.002c-15.014-0.016-29.111-5.854-39.705-16.443c-0.004-0.004-0.004-0.004-0.008-0.008    C45.836,307.686,40,293.574,40,278.553c0.002-15.031,5.842-29.147,16.445-39.752l154.549-154.55    c15.18-15.179,35.397-23.539,56.928-23.539c19.76,0,45.047,11.493,61.512,27.956c0.007,0.007,0.015,0.015,0.021,0.021    c16.033,16.035,25.994,38.852,25.994,59.549c0,21.53-8.357,41.747-23.539,56.926l-53.988,53.979    c-7.812,7.812-7.813,20.474-0.002,28.284c0,0.001,0,0.001,0.002,0.002c7.81,7.811,20.471,7.812,28.279,0.001l53.992-53.981    c22.735-22.734,35.256-52.997,35.256-85.211C395.449,116.85,381.354,84.02,357.744,60.411z" data-original="#000000" class="active-path" data-old_color="#000000" fill="#8A8A8A"/>
	</g>
</g></g> </svg>
